<svg xmlns="http://www.w3.org/2000/svg" viewBox="0 0 64 64" id="earth"><g data-name="Layer 2"><circle cx="32" cy="32" r="29" fill="#5faded"></circle><path fill="#4b8047" d="M56.273 45.001c-.061-.21-.693-2.073-4.316-2.677a16.576 16.576 0 0 0-6.21.625 10.999 10.999 0 0 1-1.993.372c-1.387-.406-10.611-6.095-11.327-7.357-.31-.68-.714-1.9.074-2.412.92-.597 3.323-.262 4.99 1.627a3.163 3.163 0 0 0 4.061.819 3.452 3.452 0 0 0 1.247-4.35c-.22-.58-.46-1.154-.695-1.717-.796-1.897-1.547-3.688-.985-4.934a6.358 6.358 0 0 1 1.188-1.531c1.042-1.108 2.787-2.962.588-5.26-2.449-2.56-3.5-2.932-7.057-2.474a8.087 8.087 0 0 1-5.708-1.524 1.585 1.585 0 0 1-.612-1.001c0-2.478-5.708-5.145-9.11-6.514l-1.449-.583A29.141 29.141 0 0 0 4.426 23.032l3.478-3.16c.067-.06 6.801-6.008 10.488-3.183.304.234-.12 2.188-.4 3.482a47.522 47.522 0 0 0-1.022 6.19 17.495 17.495 0 0 0 5.473 14.46c2.206 2.139 7.906 4.433 12.486 6.277a46.476 46.476 0 0 1 4.721 2.05 5.563 5.563 0 0 1-.53.933c-.604.934-1.43 2.213-.879 3.626.87 2.239 6.42 2.638 8.764 2.706l.59.017a29.22 29.22 0 0 0 9.237-9.468zM34.285 3.098c-1.396 2.146-1.753 4.004-1.083 5.608 2.233 5.342 15.318 4.57 16.71 4.466l4.188.08A28.955 28.955 0 0 0 34.285 3.099z"></path></g><path fill="#330505" d="M32 3a29 29 0 1 0 29 29A29.05 29.05 0 0 0 32 3Zm2.955 2.165a26.882 26.882 0 0 1 14.256 6.048c-3.662.18-11.704-.015-13.839-2.732a2.51 2.51 0 0 1-.308-2.497.983.983 0 0 0-.109-.819ZM5 32a26.826 26.826 0 0 1 2.874-12.1l.03-.027c.067-.061 6.801-6.008 10.488-3.183.304.234-.12 2.188-.4 3.482a47.522 47.522 0 0 0-1.022 6.189 17.495 17.495 0 0 0 5.473 14.46c2.206 2.139 7.906 4.433 12.486 6.277a46.476 46.476 0 0 1 4.721 2.05 5.563 5.563 0 0 1-.53.933c-.604.934-1.43 2.213-.879 3.626.587 1.512 3.308 2.183 5.736 2.482A26.985 26.985 0 0 1 5 32Zm42.038 22.413c-3.291-.1-6.593-.782-6.933-1.431-.18-.462.265-1.15.695-1.815.58-.898 1.457-2.255.321-3.391-.525-.526-1.836-1.08-5.445-2.534-4.186-1.684-9.917-3.992-11.843-5.857a15.555 15.555 0 0 1-4.871-12.85c.557-6.353 2.718-9.843.646-11.432-2.758-2.117-6.295-1.029-8.994.443a27.189 27.189 0 0 1 8.633-7.337.971.971 0 0 0 .414.34c3.954 1.59 7.7 3.82 7.857 4.658a3.362 3.362 0 0 0 1.292 2.503 10.024 10.024 0 0 0 7.284 2.006c2.934-.378 3.337-.24 5.357 1.871.82.86.663 1.167-.599 2.508a7.904 7.904 0 0 0-1.557 2.08c-1.137 2.528.602 5.433 1.631 8.176a1.523 1.523 0 0 1-.402 1.932 1.191 1.191 0 0 1-1.532-.427c-2.098-2.378-5.57-3.286-7.58-1.98-.551.357-2.24 1.772-.804 4.919.916 2.007 11.447 8.192 12.688 8.474a7.499 7.499 0 0 0 2.908-.372 14.927 14.927 0 0 1 5.425-.6c2.222.37 2.698 1.226 2.736 1.304a.993.993 0 0 0 .585.6 27.211 27.211 0 0 1-7.912 8.212Zm8.932-10.01c-.452-.66-1.53-1.665-4.013-2.079a16.576 16.576 0 0 0-6.211.625 10.999 10.999 0 0 1-1.993.372c-1.386-.406-10.61-6.095-11.327-7.357-.31-.68-.714-1.9.075-2.412.92-.597 3.323-.262 4.99 1.627a3.163 3.163 0 0 0 4.061.819 3.452 3.452 0 0 0 1.246-4.35c-.979-2.6-2.397-5.059-1.68-6.651a6.358 6.358 0 0 1 1.189-1.531c1.042-1.108 2.787-2.962.588-5.26-2.45-2.56-3.5-2.932-7.058-2.474a8.087 8.087 0 0 1-5.707-1.524 1.585 1.585 0 0 1-.612-1.001c0-2.234-4.636-4.619-8.043-6.07A26.85 26.85 0 0 1 32 5q.679 0 1.349.034a1.001 1.001 0 0 0-.19.342 4.512 4.512 0 0 0 .641 4.341c2.41 3.065 9.12 3.552 13.113 3.552 1.53 0 2.661-.072 2.998-.097l1.365.026c.022 0 .041-.01.063-.012a26.922 26.922 0 0 1 4.631 31.217Z" data-name="Layer 3"></path></svg>