<svg xmlns="http://www.w3.org/2000/svg" width="32" height="32" id="game"><g color="#000"><path fill="#373748" d="M14.229 1022.361c-7.846 0-14.229 6.382-14.229 14.227 0 7.845 6.383 14.225 14.229 14.225 7.845 0 14.226-6.38 14.226-14.225a1 1 0 0 0 0-.01c-.001-.17-.022-.337-.03-.506l2.833-.758a1 1 0 0 0 .578-1.513l-1.076-1.641.111-1.961a1 1 0 0 0-1.258-1.022l-2.926.786c-2.454-4.61-7.187-7.595-12.458-7.602zm-.002 2h.002c4.79.01 9.13 2.806 11.113 7.166a1 1 0 0 0 1.17.553l2.285-.613-.053.908a1 1 0 0 0 .162.606l.5.76-2.281.61a1 1 0 0 0-.736 1.07c.04.391.063.782.066 1.175a12.21 12.21 0 0 1-12.226 12.217A12.211 12.211 0 0 1 2 1036.588a12.213 12.213 0 0 1 12.227-12.227z" font-family="sans-serif" font-weight="400" overflow="visible" style="line-height:normal;text-indent:0;text-align:start;text-decoration-line:none;text-decoration-style:solid;text-decoration-color:#000;text-transform:none;block-progression:tb;isolation:auto;mix-blend-mode:normal" transform="translate(0 -1020.362)"></path><path fill="#f55" d="M14.228 1023.363A13.228 13.226 0 0 0 1 1036.587a13.228 13.226 0 0 0 13.227 13.227 13.228 13.226 0 0 0 13.228-13.226 13.228 13.226 0 0 0-13.228-13.225zm0 2.558a10.668 10.666 0 0 1 10.668 10.666 10.668 10.666 0 0 1-10.668 10.666 10.668 10.666 0 0 1-10.668-10.666 10.668 10.666 0 0 1 10.668-10.666z" overflow="visible" style="isolation:auto;mix-blend-mode:normal" transform="translate(0 -1020.362)"></path><path fill="#f55" d="M14.228 1028.482a8.107 8.106 0 0 0-8.108 8.105 8.107 8.106 0 0 0 8.108 8.106 8.107 8.106 0 0 0 8.107-8.106 8.107 8.106 0 0 0-8.107-8.105zm0 2.559a5.547 5.546 0 0 1 5.547 5.547 5.547 5.546 0 0 1-5.547 5.546 5.547 5.546 0 0 1-5.547-5.546 5.547 5.546 0 0 1 5.547-5.547z" overflow="visible" style="isolation:auto;mix-blend-mode:normal" transform="translate(0 -1020.362)"></path><path fill="#f55" d="M14.228 1033.601a2.987 2.986 0 0 0-2.987 2.986 2.987 2.986 0 0 0 2.987 2.987 2.987 2.986 0 0 0 2.986-2.986 2.987 2.986 0 0 0-2.986-2.987zm0 2.06c.506 0 .925.42.925.927 0 .505-.42.927-.925.927a.934.934 0 0 1-.926-.928c0-.505.42-.925.926-.925z" overflow="visible" style="isolation:auto;mix-blend-mode:normal" transform="translate(0 -1020.362)"></path><path fill="#373748" fill-rule="evenodd" d="M27.783 1032.438a.5.5 0 0 0-.133.02l-13.252 3.55a.5.5 0 1 0 .26.965l13.25-3.549a.5.5 0 0 0-.125-.986z" font-family="sans-serif" font-weight="400" overflow="visible" style="line-height:normal;text-indent:0;text-align:start;text-decoration-line:none;text-decoration-style:solid;text-decoration-color:#000;text-transform:none;block-progression:tb;isolation:auto;mix-blend-mode:normal" transform="translate(0 -1020.362)"></path><path fill="#ffd42a" d="m25.715 1031.257 4.157-1.114-.129 2.288 1.257 1.917-4.158 1.114-1.257-1.917z" overflow="visible" style="isolation:auto;mix-blend-mode:normal" transform="translate(0 -1020.362)"></path></g></svg>